<svg xmlns="http://www.w3.org/2000/svg" width="100%" height="100%" viewBox="0 0 1200 400"><defs><linearGradient id="bg-grad" x1="0%" x2="100%" y1="0%" y2="100%"><stop offset="0%" stop-color="#0b0f19"/><stop offset="50%" stop-color="#111827"/><stop offset="100%" stop-color="#070a11"/></linearGradient><linearGradient id="accent-cyan" x1="0%" x2="100%" y1="0%" y2="0%"><stop offset="0%" stop-color="#06b6d4"/><stop offset="100%" stop-color="#3b82f6"/></linearGradient><linearGradient id="card-grad" x1="0%" x2="0%" y1="0%" y2="100%"><stop offset="0%" stop-color="rgba(31, 41, 55, 0.7)"/><stop offset="100%" stop-color="rgba(17, 24, 39, 0.8)"/></linearGradient><filter id="glow" width="140%" height="140%" x="-20%" y="-20%"><feGaussianBlur result="blur" stdDeviation="8"/><feComposite in="SourceGraphic" in2="blur" operator="over"/></filter><filter id="soft-shadow" width="120%" height="120%" x="-10%" y="-10%"><feDropShadow dx="0" dy="10" flood-color="#000" flood-opacity=".5" stdDeviation="12"/></filter></defs><style>@keyframes pulse-glow{0%{opacity:.4;transform:scale(1)}50%{opacity:.8;transform:scale(1.05)}}@keyframes float-node{0%{transform:translateY(0)}50%{transform:translateY(-10px)}}@keyframes radar-sweep{0%{transform:rotate(0deg)}}.badge-text,.card-title,.card-val,.subtitle,.title{font-family:&apos;Segoe UI&apos;,system-ui,-apple-system,sans-serif}.title{font-weight:800;font-size:42px;fill:#fff}.subtitle{font-weight:500;font-size:18px;fill:#9ca3af}.badge-text{font-weight:600;font-size:13px;fill:#e0e7ff}.card-title{font-weight:700;font-size:14px;fill:#38bdf8}.card-val{font-weight:600;font-size:12px;fill:#94a3b8}.pulsing-orb{animation:pulse-glow 6s infinite ease-in-out;transform-origin:center}.floating-card-1{animation:float-node 5s infinite ease-in-out}.floating-card-2{animation:float-node 7s infinite ease-in-out 1s}.floating-card-3{animation:float-node 6s infinite ease-in-out 2s}.data-stream{stroke-dasharray:8 8;animation:dash-flow 2s linear infinite}.radar-line{transform-origin:980px 200px;animation:radar-sweep 10s linear infinite}</style><rect width="1200" height="400" fill="url(#bg-grad)" rx="16"/><circle cx="200" cy="100" r="180" fill="#3b82f6" class="pulsing-orb" filter="url(#glow)" opacity=".15"/><circle cx="1000" cy="280" r="220" fill="#8b5cf6" class="pulsing-orb" filter="url(#glow)" opacity=".15"/><g stroke="#fff" stroke-width="1" opacity=".08"><path d="M 0 50 H 1200 M 0 100 H 1200 M 0 150 H 1200 M 0 200 H 1200 M 0 250 H 1200 M 0 300 H 1200 M 0 350 H 1200"/><path d="M 100 0 V 400 M 200 0 V 400 M 300 0 V 400 M 400 0 V 400 M 500 0 V 400 M 600 0 V 400 M 700 0 V 400 M 800 0 V 400 M 900 0 V 400 M 1000 0 V 400 M 1100 0 V 400"/></g><g fill="none" stroke="url(#accent-cyan)" stroke-width="2" opacity=".6"><path d="M 750 280 C 820 280, 850 150, 920 150" class="data-stream"/><path d="M 780 120 C 850 120, 880 250, 960 250" class="data-stream"/><path d="M 920 150 L 1050 120" class="data-stream"/></g><g transform="translate(980, 200)"><circle r="130" fill="none" stroke="#334155" stroke-width="1.5" opacity=".5"/><circle r="90" fill="none" stroke="#334155" stroke-width="1.5" opacity=".5"/><circle r="50" fill="none" stroke="#334155" stroke-width="1.5" opacity=".5"/><line x1="-140" x2="140" y1="0" y2="0" stroke="#334155" stroke-width="1" opacity=".3"/><line x1="0" x2="0" y1="-140" y2="140" stroke="#334155" stroke-width="1" opacity=".3"/><line x1="0" x2="120" y1="0" y2="-50" stroke="#06b6d4" stroke-width="2" class="radar-line" filter="url(#glow)" opacity=".8"/></g><g class="floating-card-1" filter="url(#soft-shadow)"><rect width="170" height="65" x="730" y="80" fill="url(#card-grad)" stroke="#38bdf8" stroke-width="1.5" opacity=".9" rx="10"/><text x="745" y="105" class="card-title">🔍 Agentless Scan</text><text x="745" y="128" class="card-val">VMware &amp; Physical</text></g><g class="floating-card-2" filter="url(#soft-shadow)"><rect width="180" height="65" x="940" y="240" fill="url(#card-grad)" stroke="#a855f7" stroke-width="1.5" opacity=".9" rx="10"/><text x="955" y="265" fill="#c084fc" class="card-title">🗺️ Wave Planning</text><text x="955" y="288" class="card-val">7Rs Strategy Matrix</text></g><g class="floating-card-3" filter="url(#soft-shadow)"><rect width="165" height="65" x="760" y="250" fill="url(#card-grad)" stroke="#3b82f6" stroke-width="1.5" opacity=".9" rx="10"/><text x="775" y="275" fill="#60a5fa" class="card-title">💰 TCO Optimization</text><text x="775" y="298" class="card-val">AWS / Azure / GCP</text></g><g><g transform="translate(70, 0) translate(0, 75)"><rect width="260" height="32" fill="url(#accent-cyan)" opacity=".2" rx="16"/><rect width="260" height="32" fill="none" stroke="#06b6d4" stroke-width="1.5" rx="16"/><text x="16" y="21" class="badge-text">⚡ Enterprise Migration &amp; Discovery</text></g><text x="0" y="165" class="title" transform="translate(70, 0)">Awesome Cloud Migration</text><text x="0" y="215" fill="url(#accent-cyan)" class="title" transform="translate(70, 0)">Discovery &amp; Planning 🗺️ ☁️</text><text x="0" y="260" class="subtitle" transform="translate(70, 0)">Curated Directory of Assessment Platforms, Dependency Mapping &amp; 7Rs Engines</text><g transform="translate(70, 0) translate(0, 295)"><rect width="140" height="30" x="0" y="0" fill="#1e293b" stroke="#475569" stroke-width="1" rx="6"/><text x="12" y="19" fill="#38bdf8" font-family="Segoe UI, sans-serif" font-size="12" font-weight="600">🏢 SaaS &amp; Hyperscalers</text><rect width="135" height="30" x="150" y="0" fill="#1e293b" stroke="#475569" stroke-width="1" rx="6"/><text x="162" y="19" fill="#a855f7" font-family="Segoe UI, sans-serif" font-size="12" font-weight="600">🔓 Open-Source Tools</text><rect width="125" height="30" x="295" y="0" fill="#1e293b" stroke="#475569" stroke-width="1" rx="6"/><text x="307" y="19" fill="#4ade80" font-family="Segoe UI, sans-serif" font-size="12" font-weight="600">📊 TCO &amp; 7Rs Matrix</text></g></g></svg>